<?xml version="1.0" encoding="UTF-8" standalone="no"?>
<!-- Created with Inkscape (http://www.inkscape.org/) -->

<svg
   width="1000mm"
   height="1000mm"
   viewBox="0 0 1000 1000"
   version="1.1"
   id="svg1"
   inkscape:version="1.4 (e7c3feb1, 2024-10-09)"
   sodipodi:docname="tower.svg"
   xmlns:inkscape="http://www.inkscape.org/namespaces/inkscape"
   xmlns:sodipodi="http://sodipodi.sourceforge.net/DTD/sodipodi-0.dtd"
   xmlns="http://www.w3.org/2000/svg"
   xmlns:svg="http://www.w3.org/2000/svg">
  <sodipodi:namedview
     id="namedview1"
     pagecolor="#ffffff"
     bordercolor="#000000"
     borderopacity="0.25"
     inkscape:showpageshadow="2"
     inkscape:pageopacity="0.0"
     inkscape:pagecheckerboard="0"
     inkscape:deskcolor="#d1d1d1"
     inkscape:document-units="mm"
     showguides="true"
     inkscape:zoom="0.22039792"
     inkscape:cx="1889.7638"
     inkscape:cy="1887.4951"
     inkscape:window-width="1920"
     inkscape:window-height="1027"
     inkscape:window-x="1728"
     inkscape:window-y="25"
     inkscape:window-maximized="0"
     inkscape:current-layer="layer1" />
  <defs
     id="defs1" />
  <g
     inkscape:label="Layer 1"
     inkscape:groupmode="layer"
     id="layer1">
    <path
       id="rect1"
       style="fill:none;stroke:#000000;stroke-width:1.24855;stroke-dasharray:none;stroke-opacity:1"
       d="M 16.266191 18.493445 L 16.266191 662.24485 L 240.01739 662.24485 L 240.01739 18.493445 L 16.266191 18.493445 z M 27.63914 28.192078 L 61.459814 28.192078 L 27.63914 74.809904 L 27.63914 28.192078 z M 75.036247 28.192078 L 121.65407 28.192078 L 121.65407 62.012752 L 75.036247 28.192078 z M 196.75337 28.192078 L 230.57404 28.192078 L 196.75337 74.809904 L 196.75337 28.192078 z M 137.91716 28.346073 L 184.53499 28.346073 L 184.53499 62.167265 L 137.91716 28.346073 z M 67.116317 28.672152 L 113.73414 62.493343 L 67.116317 62.493343 L 67.116317 28.672152 z M 129.99723 28.826664 L 176.61506 62.647339 L 129.99723 62.647339 L 129.99723 28.826664 z M 61.940405 35.053158 L 61.940405 81.671501 L 28.119731 81.671501 L 61.940405 35.053158 z M 231.05463 35.053158 L 231.05463 81.671501 L 197.23344 81.671501 L 231.05463 35.053158 z M 73.157808 77.728072 L 185.52614 77.728072 L 185.52614 128.72341 L 73.157808 128.72341 L 73.157808 77.728072 z M 27.63914 91.555652 L 61.459814 91.555652 L 27.63914 138.17348 L 27.63914 91.555652 z M 196.75337 91.555652 L 230.57404 91.555652 L 196.75337 138.17348 L 196.75337 91.555652 z M 61.940405 98.417249 L 61.940405 145.03507 L 28.119731 145.03507 L 61.940405 98.417249 z M 231.05463 98.417249 L 231.05463 145.03507 L 197.23344 145.03507 L 231.05463 98.417249 z M 73.157808 145.49861 L 185.52614 145.49861 L 185.52614 210.07297 L 73.157808 210.07297 L 73.157808 145.49861 z M 27.63914 154.91974 L 61.459814 154.91974 L 27.63914 201.53757 L 27.63914 154.91974 z M 196.75337 154.91974 L 230.57404 154.91974 L 196.75337 201.53757 L 196.75337 154.91974 z M 61.940405 161.78134 L 61.940405 208.39917 L 28.119731 208.39917 L 61.940405 161.78134 z M 231.05463 161.78134 L 231.05463 208.39917 L 197.23344 208.39917 L 231.05463 161.78134 z M 27.63914 218.28383 L 61.459814 218.28383 L 27.63914 264.90166 L 27.63914 218.28383 z M 196.75337 218.28383 L 230.57404 218.28383 L 196.75337 264.90166 L 196.75337 218.28383 z M 61.940405 225.14543 L 61.940405 271.76326 L 28.119731 271.76326 L 61.940405 225.14543 z M 231.05463 225.14543 L 231.05463 271.76326 L 197.23344 271.76326 L 231.05463 225.14543 z M 73.157808 226.84817 L 185.52614 226.84817 L 185.52614 291.42252 L 73.157808 291.42252 L 73.157808 226.84817 z M 27.63914 281.64741 L 61.459814 281.64741 L 27.63914 328.26575 L 27.63914 281.64741 z M 196.75337 281.64741 L 230.57404 281.64741 L 196.75337 328.26575 L 196.75337 281.64741 z M 61.940405 288.509 L 61.940405 335.12683 L 28.119731 335.12683 L 61.940405 288.509 z M 231.05463 288.509 L 231.05463 335.12683 L 197.23344 335.12683 L 231.05463 288.509 z M 73.157808 308.19773 L 185.52614 308.19773 L 185.52614 372.7726 L 73.157808 372.7726 L 73.157808 308.19773 z M 27.63914 345.0115 L 61.459814 345.0115 L 27.63914 391.62933 L 27.63914 345.0115 z M 196.75337 345.0115 L 230.57404 345.0115 L 196.75337 391.62933 L 196.75337 345.0115 z M 61.940405 351.8731 L 61.940405 398.49092 L 28.119731 398.49092 L 61.940405 351.8731 z M 231.05463 351.8731 L 231.05463 398.49092 L 197.23344 398.49092 L 231.05463 351.8731 z M 73.157808 389.54728 L 185.52614 389.54728 L 185.52614 454.12215 L 73.157808 454.12215 L 73.157808 389.54728 z M 27.63914 408.37559 L 61.459814 408.37559 L 27.63914 454.99342 L 27.63914 408.37559 z M 196.75337 408.37559 L 230.57404 408.37559 L 196.75337 454.99342 L 196.75337 408.37559 z M 61.940405 415.23719 L 61.940405 461.85501 L 28.119731 461.85501 L 61.940405 415.23719 z M 231.05463 415.23719 L 231.05463 461.85501 L 197.23344 461.85501 L 231.05463 415.23719 z M 73.157808 470.89736 L 185.52614 470.89736 L 185.52614 535.47171 L 73.157808 535.47171 L 73.157808 470.89736 z M 27.63914 471.73968 L 61.459814 471.73968 L 27.63914 518.35751 L 27.63914 471.73968 z M 196.75337 471.73968 L 230.57404 471.73968 L 196.75337 518.35751 L 196.75337 471.73968 z M 61.940405 478.60076 L 61.940405 525.2191 L 28.119731 525.2191 L 61.940405 478.60076 z M 231.05463 478.60076 L 231.05463 525.2191 L 197.23344 525.2191 L 231.05463 478.60076 z M 27.63914 535.10326 L 61.459814 535.10326 L 27.63914 581.72108 L 27.63914 535.10326 z M 196.75337 535.10326 L 230.57404 535.10326 L 196.75337 581.72108 L 196.75337 535.10326 z M 61.940405 541.96485 L 61.940405 588.58268 L 28.119731 588.58268 L 61.940405 541.96485 z M 231.05463 541.96485 L 231.05463 588.58268 L 197.23344 588.58268 L 231.05463 541.96485 z M 73.157808 552.24691 L 185.52614 552.24691 L 185.52614 604.17346 L 73.157808 604.17346 L 73.157808 552.24691 z M 27.63914 598.46735 L 61.459814 598.46735 L 27.63914 645.08517 L 27.63914 598.46735 z M 196.75337 598.46735 L 230.57404 598.46735 L 196.75337 645.08517 L 196.75337 598.46735 z M 61.940405 605.32894 L 61.940405 651.94677 L 28.119731 651.94677 L 61.940405 605.32894 z M 231.05463 605.32894 L 231.05463 651.94677 L 197.23344 651.94677 L 231.05463 605.32894 z M 77.058346 616.15516 L 123.67617 616.15516 L 123.67617 649.97583 L 77.058346 616.15516 z M 139.93926 616.30967 L 186.55709 616.30967 L 186.55709 650.13034 L 139.93926 616.30967 z M 69.138416 616.63575 L 115.75676 650.45642 L 69.138416 650.45642 L 69.138416 616.63575 z M 132.01933 616.78974 L 178.63716 650.61093 L 132.01933 650.61093 L 132.01933 616.78974 z " />
  </g>
</svg>
